# AST/ASF file generated using VICON BodyLanguage
# -----------------------------------------------
:version 1.10
:name VICON
:units
  mass 1.0
  length 0.45
  angle deg
:documentation
   .ast/.asf automatically generated from VICON data using
   VICON BodyBuilder and BodyLanguage model FoxedUp or BRILLIANT.MOD
:root
   order TX TY TZ RX RY RZ
   axis XYZ
   position 0 0 0  
   orientation 0 0 0 
:bonedata
  begin
     id 1 
     name lhipjoint
     direction 0.567725 -0.736092 0.368589 
     length 2.42353 
     axis 0 0 0  XYZ
  end
  begin
     id 2 
     name lfemur
     direction 0.34202 -0.939693 0  
     length 7.24894  
     axis 0 0 20  XYZ
    dof rx ry rz
    limits (-160.0 20.0)
           (-70.0 70.0)
           (-60.0 70.0)
  end
  begin
     id 3 
     name ltibia
     direction 0.34202 -0.939693 0   
     length 7.6997   
     axis 0 0 20   XYZ
    dof rx
    limits (-10.0 170.0)
  end
  begin
     id 4 
     name lfoot
     direction 0.100767 -0.276854 0.955614   
     length 2.37556   
     axis -90 7.62852e-016 20   XYZ
    dof rx rz
    limits (-45.0 90.0)
           (-70.0 20.0)
  end
  begin
     id 5 
     name ltoes
     direction 1.53592e-011 -4.21894e-011 1   
     length 1.18363   
     axis -90 7.62852e-016 20   XYZ
    dof rx
    limits (-90.0 20.0)
  end
  begin
     id 6 
     name rhipjoint
     direction -0.556459 -0.742938 0.372017   
     length 2.4012  
     axis 0 0 0  XYZ 
  end
  begin
     id 7 
     name rfemur
     direction -0.34202 -0.939693 0   
     length 7.5119   
     axis 0 0 -20   XYZ
    dof rx ry rz
    limits (-160.0 20.0)
           (-70.0 70.0)
           (-70.0 60.0)
  end
  begin
     id 8 
     name rtibia
     direction -0.34202 -0.939693 0   
     length 7.50155   
     axis 0 0 -20   XYZ
    dof rx
    limits (-10.0 170.0)
 end
 begin
     id 9 
     name rfoot
     direction -0.118427 -0.325376 0.938139   
     length 2.32487  
     axis -90 -7.62852e-016 -20   XYZ
    dof rx rz
    limits (-45.0 90.0)
           (-20.0 70.0)
  end
  begin
     id 10 
     name rtoes
     direction -1.53525e-011 -4.21868e-011 1   
     length 1.15233   
     axis -90 -7.62852e-016 -20   XYZ
    dof rx
    limits (-90.0 20.0)
  end
  begin
     id 11 
     name lowerback
     direction 0.0287568 0.999577 -0.00434502   
     length 2.15243   
     axis 0 0 0   XYZ
    dof rx ry rz
    limits (-20.0 45.0)
           (-30.0 30.0)
           (-30.0 30.0)
  end
  begin
     id 12 
     name upperback
     direction 0.0294009 0.99956 0.00404628   
     length 2.15427   
     axis 0 0 0   XYZ
    dof rx ry rz
    limits (-20.0 45.0)
           (-30.0 30.0)
           (-30.0 30.0)
  end
  begin
     id 13 
     name thorax
     direction 0.0151014 0.999868 0.0059419   
     length 2.14898   
     axis 0 0 0   XYZ
    dof rx ry rz
    limits (-20.0 45.0)
           (-30.0 30.0)
           (-30.0 30.0)
  end
  begin
     id 14 
     name lowerneck
     direction -0.0249197 0.989906 0.139515   
     length 1.6861   
     axis 0 0 0   XYZ
    dof rx ry rz
    limits (-20.0 45.0)
           (-30.0 30.0)
           (-30.0 30.0)
  end
  begin
     id 15 
     name upperneck
     direction 0.0438463 0.988795 -0.142693   
     length 1.71276   
     axis 0 0 0   XYZ
    dof rx ry rz
    limits (-20.0 45.0)
           (-30.0 30.0)
           (-30.0 30.0)
  end
  begin
     id 16
     name head
     direction 0.0148499 0.997845 -0.0639186  
     length 1.7209  
     axis 0 0 0   XYZ
    dof rx ry rz
    limits (-20.0 45.0)
           (-30.0 30.0)
           (-30.0 30.0)
  end
  begin
     id 17 
     name lclavicle
     direction 0.940298 0.323464 -0.105876  
     length 3.9048  
     axis 0 0 0   XYZ
    dof ry rz
    limits (-20.0 10.0)
           (0.0 20.0)
  end
  begin
     id 18 
     name lhumerus
     direction 1 -4.48954e-011 -4.9675e-028   
     length 4.6851   
     axis 180 -30 -90   XYZ
    dof rx ry rz
    limits (-60.0 90.0)
           (-90.0 90.0)
           (-90.0 90.0)
  end
  begin
     id 19
     name lradius
     direction 1 -4.48992e-011 -1.03359e-026   
     length 3.39626   
     axis 180 -30 -90   XYZ
    dof rx
    limits (-10.0 170.0)
  end
  begin
     id 20
     name lwrist
     direction 1 -4.48906e-011 -1.67336e-026   
     length 1.69813   
     axis 9.90442e-015 90 90   XYZ
    dof ry
    limits (-180.0 0.0)
 end
  begin
     id 21 
     name lhand
     direction 1 -4.49006e-011 -3.34673e-026   
     length 0.486078   
     axis 2.1355e-014 90 90   XYZ
    dof rx rz
    limits (-90.0 90.0)
           (-45.0 45.0)
  end
  begin
     id 22 
     name lfingers
     direction 1 -4.48992e-011 -6.69345e-026   
     length 0.391889   
     axis 4.27099e-014 90 90   XYZ
    dof rx
    limits (0.0 90.0)
  end
  begin
     id 23
     name lthumb
     direction 0.707107 -6.34926e-011 0.707107   
     length 0.562676   
     axis -90 45 2.85299e-015   XYZ
    dof rx rz
    limits (-45.0 45.0)
           (-45.0 45.0)
  end
  begin
     id 24 
     name rclavicle
     direction -0.882459 0.414895 -0.221648   
     length 3.44646  
     axis 0 0 0   XYZ 
    dof ry rz
    limits (-10.0 20.0)
           (-20.0 0.0)
  end
  begin
     id 25 
     name rhumerus
     direction -1 -4.48962e-011 -2.37984e-027  
     length 5.55576   
     axis 180 30 90   XYZ
    dof rx ry rz
    limits (-90.0 60.0)
           (-90.0 90.0)
           (-90.0 90.0)
  end
  begin
     id 26 
     name rradius
     direction -1 -4.48982e-011 -6.86791e-027   
     length 3.32774   
     axis 180 30 90   XYZ
    dof rx
    limits (-10.0 170.0)
  end
  begin
     id 27 
     name rwrist
     direction -1 -4.48961e-011 -1.67336e-026   
     length 1.66387   
     axis 9.90442e-015 -90 -90   XYZ
    dof ry
    limits (-180.0 0.0)
  end
  begin
     id 28
     name rhand
     direction -1 -4.4897e-011 -3.34673e-026   
     length 0.507628   
     axis 2.1355e-014 -90 -90   XYZ
    dof rx rz
    limits (-90.0 90.0)
           (-45.0 45.0)
  end
  begin
     id 29
     name rfingers
     direction -1 -4.48854e-011 -6.69345e-026   
     length 0.409263   
     axis 4.27099e-014 -90 -90   XYZ
    dof rx
    limits (0.0 90.0)
  end
  begin
     id 30
     name rthumb
     direction -0.707107 -6.34913e-011 0.707107   
     length 0.587622   
     axis -90 -45 -2.85299e-015   XYZ
    dof rx rz
    limits (-45.0 45.0)
           (-45.0 45.0)
  end
:hierarchy
  begin
    root lhipjoint rhipjoint lowerback
    lhipjoint lfemur
    lfemur ltibia
    ltibia lfoot
    lfoot ltoes
    rhipjoint rfemur
    rfemur rtibia
    rtibia rfoot
    rfoot rtoes
    lowerback upperback
    upperback thorax
    thorax lowerneck lclavicle rclavicle
    lowerneck upperneck
    upperneck head
    lclavicle lhumerus
    lhumerus lradius
    lradius lwrist
    lwrist lhand lthumb
    lhand lfingers
    rclavicle rhumerus
    rhumerus rradius
    rradius rwrist
    rwrist rhand rthumb
    rhand rfingers
  end

#!OML:ASF E:\motion texture\Top Level 1\Subject 1\Session 1\male.ASF
:FULLY-SPECIFIED
:DEGREES
33
root 28.6393 17.6239 5.81966 -26.4804 -85.9241 24.607
lowerback 9.25609 -5.86944 -3.79053
upperback -0.552175 -8.12441 2.71244
thorax -4.81482 -3.90551 5.97511
lowerneck -21.8445 -1.16236 -3.49781
upperneck 14.6271 -1.82581 6.52125
head 8.21388 -0.385629 2.53166
rclavicle 8.64713e-015 1.59028e-015
rhumerus -59.8425 -5.82127 -56.7451
rradius 39.5698
rwrist 10.5005
rhand -10.4809 -7.41925
rfingers 7.12502
rthumb 15.5205 -36.8164
lclavicle 8.64713e-015 1.59028e-015
lhumerus -13.8029 -25.314 91.5559
lradius 74.7826
lwrist -1.13285
lhand -12.8933 10.4784
lfingers 7.12502
lthumb 13.1961 40.0407
rfemur -85.9825 -10.5947 23.3216
rtibia 89.0733
rfoot -163.175 -79.2654
rtoes 19.7486
lfemur 7.13927 -4.95205 -25.1458
ltibia 18.1761
lfoot -16.3972 -0.790429
ltoes -3.40239
34
root 28.5098 17.6081 5.80853 -29.1696 -85.9895 27.6706
lowerback 8.9323 -5.78095 -3.91079
upperback -0.656768 -8.00952 2.69112
thorax -4.7447 -3.84602 5.97364
lowerneck -21.8538 -1.1987 -3.51656
upperneck 14.5805 -1.87142 6.54383
head 8.20277 -0.406243 2.53582
rclavicle 1.5207e-014 -1.82882e-014
rhumerus -59.5823 -5.8797 -57.2494
rradius 39.7446
rwrist 10.2933
rhand -10.4654 -7.43913
rfingers 7.12502
rthumb 15.5355 -36.8351
lclavicle 1.5207e-014 -1.82882e-014
lhumerus -14.4073 -25.1979 91.88
lradius 74.3839
lwrist -1.10164
lhand -13.0138 10.4997
lfingers 7.12502
lthumb 13.0798 40.0695
rfemur -84.9898 -10.6052 23.1913
rtibia 88.9464
rfoot -327.435 -88.3333
rtoes 20.0577
lfemur 7.31951 -4.92946 -25.2408
ltibia 17.9824
lfoot -16.5521 -0.876903
ltoes -3.87638
35
root 28.379 17.5913 5.79614 -31.7551 -86.0351 30.6277
lowerback 8.58973 -5.69854 -4.03971
upperback -0.75109 -7.90236 2.67135
thorax -4.65103 -3.79143 5.97698
lowerneck -21.8569 -1.2313 -3.5303
upperneck 14.5274 -1.91336 6.56653
head 8.18818 -0.425014 2.53956
rclavicle 7.71781e-014 -1.66979e-014
rhumerus -59.2656 -5.91152 -57.8365
rradius 39.9682
rwrist 10.0394
rhand -10.4713 -7.48492
rfingers 7.12502
rthumb 15.5297 -36.8813
lclavicle 7.71781e-014 -1.66979e-014
lhumerus -15.0442 -25.0645 92.2125
lradius 73.9472
lwrist -1.05328
lhand -13.1593 10.4844
lfingers 7.12502
lthumb 12.9396 40.0632
rfemur -83.85 -10.6145 22.9996
rtibia 88.1644
rfoot -338.796 -76.0028
rtoes 20.4126
lfemur 7.50821 -4.88935 -25.3104
ltibia 17.7844
lfoot -16.6966 -1.01256
ltoes -4.35578
36
root 28.2462 17.5735 5.78215 -34.068 -86.0569 33.311
lowerback 8.24855 -5.62337 -4.17374
upperback -0.852647 -7.80448 2.65736
thorax -4.56324 -3.74091 5.9918
lowerneck -21.8559 -1.26184 -3.54369
upperneck 14.4838 -1.95258 6.58632
head 8.17589 -0.44276 2.54272
rclavicle -8.55768e-014 1.11319e-014
rhumerus -58.9007 -5.9355 -58.4673
rradius 40.2121
rwrist 9.77119
rhand -10.4928 -7.53026
rfingers 7.12502
rthumb 15.5091 -36.9282
lclavicle -8.55768e-014 1.11319e-014
lhumerus -15.7402 -24.8965 92.5687
lradius 73.4854
lwrist -1.02862
lhand -13.2377 10.4444
lfingers 7.12502
lthumb 12.8641 40.028
rfemur -82.5726 -10.6288 22.7534
rtibia 86.769
rfoot -339.019 -63.6533
rtoes 20.843
lfemur 7.70184 -4.83135 -25.3432
ltibia 17.5891
lfoot -16.8358 -1.21054
ltoes -4.79681
37
root 28.1113 17.5548 5.76667 -36.0537 -86.0465 35.6626
lowerback 7.91194 -5.55739 -4.31371
upperback -0.965394 -7.71881 2.64531
thorax -4.48734 -3.69556 6.01535
lowerneck -21.839 -1.29153 -3.55814
upperneck 14.4529 -1.99057 6.60231
head 8.16513 -0.460529 2.54501
rclavicle -1.61513e-015 1.59028e-014
rhumerus -58.5047 -5.94401 -59.1428
rradius 40.4841
rwrist 9.48256
rhand -10.5374 -7.58259
rfingers 7.12502
rthumb 15.466 -36.9839
lclavicle -1.61513e-015 1.59028e-014
lhumerus -16.4975 -24.6971 92.95
lradius 72.9879
lwrist -1.01801
lhand -13.2637 10.3603
lfingers 7.12502
lthumb 12.839 39.9455
rfemur -81.1607 -10.661 22.4516
rtibia 84.8667
rfoot -338.632 -51.3353
rtoes 21.398
lfemur 7.90121 -4.76918 -25.3524
ltibia 17.4036
lfoot -16.9691 -1.46109
ltoes -5.18823
38
root 27.9739 17.5352 5.74958 -37.5249 -86.0096 37.4899
lowerback 7.56611 -5.50241 -4.44763
upperback -1.07825 -7.64611 2.63516
thorax -4.40537 -3.65713 6.03829
lowerneck -21.7978 -1.32266 -3.57699
upperneck 14.4182 -2.02999 6.62047
head 8.14914 -0.479473 2.54843
rclavicle 4.90253e-014 -2.22639e-014
rhumerus -58.062 -5.95884 -59.8565
rradius 40.7708
rwrist 9.18671
rhand -10.5844 -7.64356
rfingers 7.12502
rthumb 15.4208 -37.0484
lclavicle 4.90253e-014 -2.22639e-014
lhumerus -17.2913 -24.4709 93.3437
lradius 72.4463
lwrist -1.01003
lhand -13.1166 10.3325
lfingers 7.12502
lthumb 12.9808 39.9087
rfemur -79.6134 -10.7103 22.1161
rtibia 82.6354
rfoot -337.957 -39.0316
rtoes 21.9984
lfemur 8.10998 -4.71663 -25.3305
ltibia 17.2311
lfoot -17.0934 -1.75323
ltoes -5.52793
39
root 27.8339 17.515 5.73087 -38.424 -85.9537 38.7339
lowerback 7.22632 -5.45508 -4.5654
upperback -1.19975 -7.58171 2.62657
thorax -4.33673 -3.62251 6.0568
lowerneck -21.7406 -1.35692 -3.60241
upperneck 14.3969 -2.07362 6.64273
head 8.13534 -0.500525 2.55387
rclavicle 2.79789e-014 -1.03368e-014
rhumerus -57.5918 -5.97909 -60.6051
rradius 41.0792
rwrist 8.86776
rhand -10.642 -7.74936
rfingers 7.12502
rthumb 15.3654 -37.1584
lclavicle 2.79789e-014 -1.03368e-014
lhumerus -18.1356 -24.2178 93.7581
lradius 71.8519
lwrist -1.0152
lhand -12.7951 10.358
lfingers 7.12502
lthumb 13.2907 39.9142
rfemur -77.933 -10.7721 21.7583
rtibia 80.3032
rfoot -337.123 -26.7207
rtoes 22.6674
lfemur 8.32508 -4.67827 -25.2744
ltibia 17.0797
lfoot -17.2093 -2.06902
ltoes -5.84111
40
root 27.6909 17.4942 5.71075 -38.6551 -85.8865 39.291
lowerback 6.88733 -5.41388 -4.65181
upperback -1.32028 -7.52223 2.61879
thorax -4.27073 -3.5911 6.05993
lowerneck -21.6766 -1.39687 -3.62507
upperneck 14.3855 -2.12521 6.65824
head 8.12405 -0.525909 2.55562
rclavicle -6.98231e-015 7.95139e-015
rhumerus -57.0929 -6.01181 -61.3916
rradius 41.4143
rwrist 8.505
rhand -10.7034 -7.88945
rfingers 7.12502
rthumb 15.3062 -37.303
lclavicle -6.98231e-015 7.95139e-015
lhumerus -19.003 -23.9495 94.1807
lradius 71.1832
lwrist -1.03998
lhand -12.3309 10.4721
lfingers 7.12502
lthumb 13.7381 39.9986
rfemur -76.1149 -10.8443 21.3936
rtibia 78.1317
rfoot -336.203 -14.3741
rtoes 23.3567
lfemur 8.55562 -4.65573 -25.1764
ltibia 16.9499
lfoot -17.3106 -2.40136
ltoes -6.1514
41
root 27.5443 17.4729 5.68928 -38.3067 -85.8206 39.2465
lowerback 6.53495 -5.37599 -4.70564
upperback -1.43471 -7.46339 2.61455
thorax -4.19428 -3.56149 6.0474
lowerneck -21.5943 -1.44182 -3.64881
upperneck 14.3793 -2.18243 6.66596
head 8.11165 -0.555083 2.55417
rclavicle -6.90031e-014 -1.11319e-014
rhumerus -56.5625 -6.05675 -62.2143
rradius 41.7734
rwrist 8.0963
rhand -10.7956 -8.0887
rfingers 7.12502
rthumb 15.2174 -37.5091
lclavicle -6.90031e-014 -1.11319e-014
lhumerus -19.8762 -23.6692 94.6024
lradius 70.4216
lwrist -1.07878
lhand -11.7475 10.6819
lfingers 7.12502
lthumb 14.3003 40.1694
rfemur -74.1568 -10.9078 21.029
rtibia 76.109
rfoot -335.646 -13.6231
rtoes 24.0519
lfemur 8.80895 -4.6412 -25.0349
ltibia 16.8375
lfoot -17.3913 -2.72909
ltoes -6.55742
